# xmcd
#
# Track frame offsets:
#	150
#	7270
#	21385
#	38700
#	54895
#	70455
#	87865
#	107325
#	121935
#	146845
#	163420
#	178305
#	235315
#	243295
#	265295
#	293290
#	307015
#
# Disc length: 4375 seconds
#
# Revision: 2
# Processed by: cddbd v1.5.1PL2 Copyright (c) Steve Scherf et al.
# Submitted via: EasyCDDAExtractor 8.0.2.1
#
DISCID=f1111511
DTITLE=Alice Cooper - Messehalle Erfurt 12-02-06
DYEAR=2006
DGENRE=Hard Rock
TTITLE0=Department Of Youth
TTITLE1=No More Mr Nice Guy
TTITLE2=Dirty Diamonds
TTITLE3=Billion Dollar Babies
TTITLE4=Be My Lover
TTITLE5=Woman Of Mass Distraction
TTITLE6=Eighteen
TTITLE7=Go To Hell
TTITLE8=Black Widow Jam
TTITLE9=Feed My Frankenstein
TTITLE10=Welcome To My Nightmare
TTITLE11=The Piece Incl Medley
TTITLE12=I Love The Dead
TTITLE13=School's Out
TTITLE14=Poison
TTITLE15=I Wish I Were Born In Beverly Hills
TTITLE16=Under my Wheels
EXTD=
EXTT0=
EXTT1=
EXTT2=
EXTT3=
EXTT4=
EXTT5=
EXTT6=
EXTT7=
EXTT8=
EXTT9=
EXTT10=
EXTT11=
EXTT12=
EXTT13=
EXTT14=
EXTT15=
EXTT16=
PLAYORDER=
